<svg width="333" height="281" viewBox="0 0 333 281" fill="none" xmlns="http://www.w3.org/2000/svg">
<g opacity="0.7" clip-path="url(#clip0)">
<path d="M177.688 39.4691C188.71 31.3275 204.226 28.2063 216.368 34.558C202.699 40.4925 191.571 51.0705 184.951 64.4202C182.417 69.5779 180.135 75.5784 174.906 77.9621C171.652 79.4454 167.812 79.159 164.443 77.9613C161.074 76.7635 158.077 74.7289 155.122 72.7157L154.235 72.609C159.495 59.9561 166.667 47.6108 177.688 39.4691Z" fill="#F0F0F0"/>
<path d="M216.27 34.8283C204.934 35.1835 193.998 39.1015 185.015 46.0259C183.055 47.4822 181.336 49.2385 179.923 51.2299C178.609 53.2143 177.85 55.5144 177.726 57.8912C177.565 60.105 177.657 62.3881 176.961 64.5243C176.589 65.6125 175.99 66.6097 175.205 67.4504C174.421 68.2911 173.467 68.9565 172.407 69.4027C169.794 70.5835 166.913 70.7551 164.09 70.825C160.956 70.9027 157.699 70.9337 154.848 72.4096C154.503 72.5885 154.246 72.0421 154.59 71.8635C159.55 69.2957 165.346 70.971 170.558 69.4428C172.991 68.7296 175.223 67.2792 176.2 64.8524C177.054 62.7303 176.961 60.3758 177.104 58.1329C177.191 55.8125 177.846 53.5488 179.01 51.5395C180.317 49.4825 181.965 47.6631 183.883 46.159C188.147 42.7039 192.927 39.9407 198.049 37.9706C203.882 35.6897 210.063 34.4234 216.323 34.2266C216.71 34.2146 216.655 34.8163 216.27 34.8283V34.8283Z" fill="white"/>
<path d="M187.776 43.626C186.819 41.9612 186.485 40.0104 186.833 38.1219C187.182 36.2334 188.19 34.5302 189.678 33.3166C189.98 33.0721 190.374 33.5298 190.072 33.7747C188.684 34.9023 187.745 36.4888 187.424 38.2481C187.103 40.0073 187.422 41.8232 188.322 43.3682C188.517 43.7041 187.97 43.96 187.776 43.626V43.626Z" fill="white"/>
<path d="M177.659 56.758C181.44 57.8147 185.48 57.4076 188.974 55.6179C189.32 55.4403 189.577 55.9867 189.232 56.164C185.592 58.0197 181.387 58.4347 177.455 57.3264C177.081 57.2205 177.287 56.6526 177.659 56.758Z" fill="white"/>
<path d="M203.854 36.4899C204.09 37.2113 204.501 37.8626 205.051 38.3856C205.601 38.9085 206.273 39.2867 207.005 39.486C207.381 39.5871 207.175 40.1549 206.801 40.0545C205.993 39.8305 205.252 39.412 204.643 38.8355C204.034 38.2591 203.576 37.5423 203.307 36.7477C203.276 36.675 203.273 36.5929 203.3 36.5182C203.327 36.4436 203.381 36.3819 203.452 36.3458C203.524 36.312 203.607 36.3082 203.682 36.3352C203.758 36.3622 203.819 36.4178 203.854 36.4899H203.854Z" fill="white"/>
<path d="M225.994 79.9418C225.758 79.8854 225.521 79.8289 225.281 79.7758C222.098 79.0334 218.859 78.5507 215.598 78.3327C215.346 78.3118 215.09 78.2945 214.838 78.2809C206.975 77.8393 199.099 78.8615 191.609 81.2953C188.629 82.2665 185.728 83.463 182.93 84.8744C179.066 86.8238 175.031 89.2449 170.872 89.788C170.438 89.8495 170.001 89.8842 169.564 89.8917L154.174 73.6984C154.157 73.644 154.137 73.593 154.12 73.5385L153.476 72.92C153.616 72.8371 153.762 72.7542 153.901 72.6713C153.981 72.6229 154.065 72.5781 154.146 72.5297C154.201 72.4986 154.256 72.4676 154.303 72.4364C154.322 72.4259 154.34 72.4157 154.355 72.4088C154.402 72.3775 154.45 72.3536 154.494 72.3259C155.31 71.8599 156.13 71.3989 156.955 70.9427C156.959 70.9392 156.959 70.9392 156.966 70.9393C163.262 67.4799 169.903 64.5158 176.782 62.6538C176.989 62.5979 177.2 62.5382 177.414 62.4897C180.519 61.6676 183.687 61.1007 186.885 60.7946C188.636 60.6327 190.395 60.5595 192.154 60.5754C196.699 60.6251 201.208 61.3895 205.515 62.8404C214.101 65.734 221.667 71.3414 225.692 79.3286C225.795 79.533 225.895 79.7339 225.994 79.9418Z" fill="#F0F0F0"/>
<path d="M225.754 80.1008C216.489 73.5592 205.398 70.1032 194.057 70.2238C191.615 70.2064 189.186 70.5741 186.858 71.3132C184.614 72.1065 182.624 73.4862 181.093 75.309C179.632 76.9799 178.331 78.8582 176.489 80.1448C175.537 80.7894 174.459 81.2254 173.326 81.4241C172.193 81.6229 171.031 81.5799 169.916 81.298C167.119 80.6679 164.715 79.0704 162.419 77.4265C159.87 75.6013 157.25 73.6651 154.086 73.1273C153.702 73.0621 153.826 72.471 154.209 72.5361C159.715 73.4718 163.334 78.2989 168.416 80.2171C170.787 81.1122 173.443 81.298 175.684 79.9483C177.643 78.7681 178.987 76.8323 180.451 75.1277C181.918 73.3276 183.804 71.9141 185.943 71.0107C188.225 70.1554 190.636 69.6948 193.073 69.6485C198.558 69.4568 204.038 70.1287 209.314 71.6395C215.345 73.3303 221.042 76.0404 226.159 79.6523C226.475 79.876 226.069 80.323 225.754 80.1008L225.754 80.1008Z" fill="white"/>
<path d="M197.706 69.9701C197.944 68.0646 198.852 66.3057 200.267 65.0076C201.682 63.7096 203.513 62.9568 205.432 62.8838C205.82 62.8703 205.859 63.4731 205.47 63.4866C203.683 63.5513 201.978 64.2527 200.663 65.4641C199.348 66.6756 198.509 68.3173 198.298 70.0931C198.251 70.4789 197.66 70.3537 197.706 69.9701H197.706Z" fill="white"/>
<path d="M181.722 74.3642C184.105 77.4842 187.576 79.5916 191.443 80.2661C191.826 80.3327 191.703 80.9238 191.32 80.8574C187.297 80.1479 183.689 77.9475 181.217 74.6954C180.982 74.3852 181.488 74.0558 181.722 74.3642V74.3642Z" fill="white"/>
<path d="M214.84 73.9521C214.594 74.6702 214.53 75.4381 214.655 76.1868C214.779 76.9355 215.087 77.6416 215.552 78.2417C215.791 78.5487 215.285 78.8778 215.047 78.5728C214.537 77.9075 214.197 77.1272 214.058 76.3003C213.919 75.4734 213.984 74.625 214.248 73.8292C214.267 73.752 214.314 73.6849 214.381 73.6414C214.447 73.5979 214.527 73.5813 214.605 73.595C214.684 73.6117 214.752 73.6585 214.796 73.7254C214.84 73.7923 214.856 73.8737 214.84 73.9521V73.9521Z" fill="white"/>
<path d="M174.78 51.5814H173.588V18.9096C173.588 16.4263 173.098 13.9674 172.148 11.6732C171.198 9.37898 169.805 7.2944 168.049 5.53849C166.293 3.78257 164.209 2.38971 161.914 1.43941C159.62 0.489115 157.161 1.33872e-06 154.678 0H85.4584C82.9752 -5.35469e-06 80.5163 0.489099 78.222 1.43939C75.9278 2.38968 73.8433 3.78254 72.0873 5.53845C70.3314 7.29436 68.9386 9.37894 67.9883 11.6731C67.038 13.9674 66.5488 16.4263 66.5488 18.9095V198.15C66.5488 203.165 68.5411 207.975 72.0873 211.521C75.6335 215.067 80.4432 217.059 85.4584 217.059H154.678C159.693 217.059 164.503 215.067 168.049 211.521C171.595 207.975 173.588 203.165 173.588 198.15V74.8378H174.78V51.5814Z" fill="#3F3D56"/>
<path d="M155.441 4.91957H146.405C146.821 5.93829 146.979 7.04355 146.867 8.138C146.755 9.23245 146.375 10.2825 145.762 11.1956C145.148 12.1088 144.319 12.857 143.348 13.3744C142.377 13.8917 141.294 14.1624 140.194 14.1625H100.539C99.4384 14.1624 98.3551 13.8917 97.3842 13.3744C96.4132 12.857 95.5844 12.1088 94.9707 11.1957C94.357 10.2825 93.9773 9.23245 93.8651 8.138C93.7528 7.04354 93.9114 5.93827 94.327 4.91956H85.8878C82.1426 4.91955 78.5507 6.40735 75.9024 9.05563C73.2542 11.7039 71.7664 15.2957 71.7664 19.041V198.018C71.7664 199.873 72.1316 201.709 72.8413 203.422C73.551 205.135 74.5911 206.692 75.9024 208.004C77.2137 209.315 78.7705 210.355 80.4838 211.065C82.197 211.774 84.0334 212.14 85.8878 212.14H155.441C157.295 212.14 159.132 211.774 160.845 211.065C162.558 210.355 164.115 209.315 165.426 208.004C166.738 206.692 167.778 205.136 168.487 203.422C169.197 201.709 169.562 199.873 169.562 198.018V19.041C169.562 15.2957 168.074 11.7039 165.426 9.05563C162.778 6.40735 159.186 4.91957 155.441 4.91957Z" fill="white"/>
<path d="M122.001 154.645C116.879 154.65 111.807 153.645 107.074 151.687C102.341 149.729 98.0407 146.857 94.419 143.236C90.7974 139.614 87.9254 135.314 85.9676 130.581C84.0098 125.848 83.0045 120.776 83.0093 115.654C83.002 108.462 84.9869 101.408 88.7438 95.2755C92.5007 89.1428 97.8828 84.1704 104.293 80.9099C108.94 78.5458 114.013 77.1356 119.213 76.7624C124.413 76.3891 129.636 77.0604 134.572 78.7367C143.315 81.7161 150.717 87.7022 155.459 95.6288C160.201 103.555 161.975 112.908 160.466 122.021C158.957 131.133 154.262 139.414 147.218 145.389C140.174 151.363 131.238 154.644 122.001 154.645L122.001 154.645ZM122.001 78.1912C116.086 78.1738 110.252 79.573 104.988 82.2717C100.387 84.6159 96.3206 87.8858 93.0435 91.8764C89.7663 95.867 87.3495 100.492 85.9447 105.461C84.5399 110.43 84.1776 115.636 84.8803 120.751C85.5831 125.867 87.3359 130.782 90.0286 135.189C92.7213 139.595 96.2958 143.397 100.528 146.356C104.76 149.314 109.557 151.367 114.62 152.383C119.683 153.4 124.901 153.359 129.947 152.263C134.993 151.167 139.758 149.039 143.943 146.014C145.966 144.554 147.837 142.894 149.528 141.059C154.471 135.71 157.748 129.036 158.956 121.853C160.164 114.671 159.252 107.292 156.331 100.62C153.409 93.948 148.606 88.2728 142.508 84.2891C136.411 80.3055 129.284 78.1863 122.001 78.1912Z" fill="#F0F0F0"/>
<path d="M37.5118 81.05C38.5821 81.1842 39.6099 81.5514 40.5229 82.1258C41.4359 82.7002 42.2119 83.4678 42.7961 84.3745C43.3804 85.2813 43.7587 86.3051 43.9045 87.3738C44.0502 88.4426 43.9599 89.5303 43.6398 90.5603L56.5948 101.351L51.9572 110.824L33.8763 95.3275C32.1815 94.6751 30.7849 93.4236 29.9511 91.8103C29.1173 90.197 28.9043 88.3338 29.3524 86.5739C29.8006 84.8141 30.8787 83.2797 32.3825 82.2616C33.8864 81.2435 35.7114 80.8124 37.5118 81.05L37.5118 81.05Z" fill="#FFB6B6"/>
<path d="M158.505 126.051C158.245 123.259 157.171 118.238 156.26 116.381C153.458 109.048 135.355 103.021 132.924 102.244L132.307 95.3882L107.154 92.6817L103.963 101.448L94.9413 104.833C94.3288 105.061 93.7745 105.422 93.318 105.89C92.8615 106.358 92.5142 106.921 92.301 107.539L84.2071 109.879L76.2203 112.188L48.4725 92.6359L47.1625 93.4922L38.4061 99.2058L37.0552 100.088L72.9632 132.484L86.3019 129.354L96.3328 126.994L97.1889 130.471L94.9719 142.683C101.395 149.108 109.898 153.035 118.954 153.759C128.011 154.483 137.029 151.957 144.392 146.633L150.09 141.577C154.062 137.282 156.993 132.133 158.658 126.525L158.505 126.051Z" fill="#E4E4E4"/>
<path d="M127.634 87.0753C137.129 83.9315 142.278 73.6854 139.134 64.1901C135.99 54.6947 125.744 49.5458 116.249 52.6896C106.753 55.8334 101.604 66.0795 104.748 75.5748C107.892 85.0701 118.138 90.2191 127.634 87.0753Z" fill="#FFB6B6"/>
<path d="M107.636 49.2358C109.396 46.7214 112.039 44.9614 115.037 44.3056C118.002 43.6958 121.088 44.2618 123.644 45.8842C126.422 44.7648 129.418 44.0221 132.362 44.3997C135.306 44.7772 138.191 46.4215 139.553 49.1303C139.839 49.832 140.187 50.5072 140.592 51.148C141.792 52.749 144.022 52.9567 145.991 53.0336C144.996 53.6144 144 54.1951 143.004 54.7758C143.996 55.2383 144.989 55.7008 145.982 56.1633C144.631 56.679 143.28 57.1947 141.929 57.7104C145.073 60.4741 145.834 65.3927 144.643 69.5163C143.516 73.4205 140.932 76.7071 138.046 79.5209C137.483 77.4213 138.103 75.1451 138.515 72.9715C138.95 70.6748 139.02 67.9892 137.412 66.3677C136.327 65.2739 134.736 64.9434 133.236 64.6781C125.667 63.3395 118.029 62.4326 110.357 61.9615C109.331 61.8197 108.285 61.9264 107.308 62.2729C105.441 63.1025 104.691 65.3808 104.15 67.4009C103.891 63.855 104.098 60.2905 104.766 56.7984C105.277 54.1258 106.084 51.4507 107.636 49.2358Z" fill="#2F2E41"/>
<path d="M131.175 173.016H109.768C109.025 173.016 108.312 172.721 107.786 172.195C107.26 171.669 106.965 170.956 106.965 170.213C106.965 169.469 107.26 168.756 107.786 168.23C108.312 167.705 109.025 167.409 109.768 167.409H131.175C131.919 167.409 132.632 167.705 133.158 168.23C133.683 168.756 133.979 169.469 133.979 170.213C133.979 170.956 133.683 171.669 133.158 172.195C132.632 172.721 131.919 173.016 131.175 173.016Z" fill="#6C63FF"/>
<path d="M60.9302 23H2.04794C1.50534 22.9992 0.985246 22.783 0.601872 22.3991C0.218498 22.0151 0.00317383 21.4947 0.00317383 20.9521C0.00317383 20.4094 0.218498 19.889 0.601872 19.505C0.985246 19.1211 1.50534 18.9049 2.04794 18.9041H60.9302C61.4734 18.9041 61.9943 19.1198 62.3784 19.5039C62.7625 19.888 62.9782 20.4089 62.9782 20.9521C62.9782 21.4952 62.7625 22.0161 62.3784 22.4002C61.9943 22.7843 61.4734 23 60.9302 23Z" fill="#6C63FF"/>
<path d="M94.9269 36.0805H2.04786C1.50474 36.0805 0.983852 35.8647 0.599803 35.4807C0.215754 35.0966 0 34.5757 0 34.0326C0 33.4895 0.215754 32.9686 0.599803 32.5845C0.983852 32.2005 1.50474 31.9847 2.04786 31.9847H94.9269C95.47 31.9847 95.9909 32.2005 96.3749 32.5845C96.759 32.9686 96.9748 33.4895 96.9748 34.0326C96.9748 34.5757 96.759 35.0966 96.3749 35.4807C95.9909 35.8647 95.47 36.0805 94.9269 36.0805Z" fill="#6C63FF"/>
<path d="M77.0784 48.4035H2.04786C1.50474 48.4035 0.983851 48.1877 0.599802 47.8036C0.215754 47.4196 0 46.8987 0 46.3556C0 45.8125 0.215754 45.2916 0.599802 44.9075C0.983851 44.5235 1.50474 44.3077 2.04786 44.3077H77.0784C77.6216 44.3077 78.1424 44.5235 78.5265 44.9075C78.9105 45.2916 79.1263 45.8125 79.1263 46.3556C79.1263 46.8987 78.9105 47.4196 78.5265 47.8036C78.1424 48.1877 77.6216 48.4035 77.0784 48.4035Z" fill="#CACACA"/>
<path d="M44.3571 60.6812H2.04786C1.50474 60.6812 0.983851 60.4655 0.599803 60.0814C0.215754 59.6974 0 59.1765 0 58.6333C0 58.0902 0.215754 57.5693 0.599803 57.1853C0.983851 56.8012 1.50474 56.5854 2.04786 56.5854H44.3571C44.9002 56.5854 45.4211 56.8012 45.8051 57.1853C46.1892 57.5693 46.4049 58.0902 46.4049 58.6333C46.4049 59.1765 46.1892 59.6974 45.8051 60.0814C45.4211 60.4655 44.9002 60.6812 44.3571 60.6812Z" fill="#CACACA"/>
<path d="M67.7296 72.958H2.0478C1.50523 72.9571 0.985192 72.741 0.601841 72.357C0.21849 71.9731 0.00317383 71.4526 0.00317383 70.9101C0.00317383 70.3675 0.21849 69.8471 0.601841 69.4631C0.985192 69.0792 1.50523 68.863 2.0478 68.8622H67.7296C68.2722 68.863 68.7922 69.0792 69.1756 69.4631C69.5589 69.8471 69.7742 70.3675 69.7742 70.9101C69.7742 71.4526 69.5589 71.9731 69.1756 72.357C68.7922 72.741 68.2722 72.9571 67.7296 72.958Z" fill="#CACACA"/>
<path d="M252.839 273.312L247.562 273.312L245.051 252.955L252.84 252.956L252.839 273.312Z" fill="#9F616A"/>
<path d="M254.915 280.616L234.767 280.615V280.36C234.767 278.28 235.593 276.285 237.064 274.815C238.535 273.344 240.529 272.518 242.609 272.518H242.61L246.29 269.726L253.157 272.518L254.916 272.518L254.915 280.616Z" fill="#2F2E41"/>
<path d="M249.764 177.642L247.436 149.263L245.608 138.611L255.845 136.35L259.243 150.933L256.283 178.43C256.88 179.161 257.245 180.055 257.33 180.995C257.415 181.935 257.218 182.88 256.762 183.707C256.307 184.534 255.614 185.206 254.774 185.637C253.934 186.068 252.984 186.238 252.046 186.124C251.109 186.011 250.227 185.62 249.513 185.002C248.799 184.383 248.287 183.565 248.042 182.654C247.796 181.742 247.829 180.777 248.136 179.884C248.443 178.991 249.01 178.21 249.764 177.642H249.764Z" fill="#9F616A"/>
<path d="M224.806 273.312L219.529 273.312L217.018 252.955L224.807 252.956L224.806 273.312Z" fill="#9F616A"/>
<path d="M216.36 184.076L214.02 188.123C214.02 188.123 211.45 188.825 212.29 197.205C213.13 205.585 213.166 255.233 217.233 261.343L217.969 266.589L225.648 267.323L225.842 262.668L234.999 197.996C234.999 197.996 240.392 261.483 244.853 263.037L246.464 268.326L253.502 268.329L253.087 262.096L253.54 183.42L216.36 184.076Z" fill="#2F2E41"/>
<path d="M213.788 187.814L213.626 187.773C218.455 169.711 217.062 146.323 213.652 121.208L213.652 121.104L225.979 109.814H236.682L247.293 116.662C254.153 120.091 255.712 127.355 255.727 127.428L255.737 127.479L251.534 142.151L254.701 184.579L254.704 184.628L254.686 184.674C253.661 187.272 250.915 186.902 247.736 186.474C244.562 186.046 232.865 189.959 229.278 189.959C222.269 189.959 214.289 187.943 213.788 187.814Z" fill="#E4E4E4"/>
<path d="M245.071 122.38L249.669 120.38L255.727 127.807L260.638 151.609L243.818 149.06L245.071 122.38Z" fill="#E4E4E4"/>
<path d="M174.346 166.27L195.366 147.062L202.672 139.097L210.725 145.811L201.271 157.422L177.713 171.908C177.499 172.828 177.016 173.663 176.324 174.306C175.633 174.949 174.765 175.371 173.832 175.517C172.899 175.663 171.944 175.526 171.089 175.125C170.234 174.724 169.519 174.077 169.034 173.266C168.55 172.455 168.32 171.518 168.372 170.576C168.424 169.633 168.758 168.727 169.329 167.975C169.9 167.223 170.682 166.659 171.577 166.355C172.471 166.051 173.435 166.022 174.346 166.27L174.346 166.27Z" fill="#9F616A"/>
<path d="M194.909 147.271L200.731 139.711C200.779 139.602 205.609 128.808 209.796 124.118C214.091 119.307 217.472 121.768 217.506 121.794L217.59 121.858L217.824 139.624L201.703 158.886L194.909 147.271Z" fill="#E4E4E4"/>
<path d="M239.954 99.1795C240.822 93.8305 237.189 88.7906 231.84 87.9225C226.491 87.0545 221.451 90.6871 220.583 96.0361C219.715 101.385 223.348 106.425 228.697 107.293C234.046 108.161 239.086 104.529 239.954 99.1795Z" fill="#9F616A"/>
<path d="M221.298 96.1513C221.298 96.1513 221.22 92.7019 220.784 91.1756C220.348 89.6492 219.475 88.341 219.912 88.341C220.348 88.341 220.566 87.2507 220.566 87.2507C220.566 87.2507 221.002 87.0327 221.22 87.2507C221.438 87.4688 221.656 85.7244 221.656 85.7244C221.656 85.7244 221.874 85.0703 222.092 85.5064C222.31 85.9425 222.31 85.7244 222.528 85.0703C222.746 84.4161 223.836 83.9801 223.836 83.9801C223.836 83.9801 227.979 84.1981 228.633 83.3259C229.288 82.4537 236.701 83.1079 238.227 84.1981C239.754 85.2883 246.513 89.2131 245.423 92.4838C244.333 95.7545 241.194 103.285 240.408 104.04C239.164 105.234 238.303 105.665 232.419 106.835C231.267 107.065 225.389 103.305 225.389 102.651C225.389 101.997 226.098 99.9227 224.958 99.6379C223.237 99.2074 223.043 101.384 222.607 100.73C222.171 100.076 221.298 96.1513 221.298 96.1513Z" fill="#2F2E41"/>
<path d="M226.882 280.616L206.734 280.615V280.36C206.734 278.28 207.56 276.285 209.031 274.815C210.502 273.344 212.496 272.518 214.576 272.518H214.577L218.257 269.726L225.124 272.518L226.883 272.518L226.882 280.616Z" fill="#2F2E41"/>
<path d="M331.619 281H1.69624C1.53528 281 1.38093 280.936 1.26711 280.822C1.1533 280.708 1.08936 280.554 1.08936 280.393C1.08936 280.232 1.1533 280.078 1.26711 279.964C1.38093 279.85 1.53528 279.786 1.69624 279.786H331.619C331.78 279.786 331.934 279.85 332.048 279.964C332.161 280.078 332.225 280.232 332.225 280.393C332.225 280.554 332.161 280.708 332.048 280.822C331.934 280.936 331.78 281 331.619 281Z" fill="#CACACA"/>
</g>
<defs>
<clipPath id="clip0">
<rect width="332.225" height="281" fill="white"/>
</clipPath>
</defs>
</svg>
