 <svg xmlns="http://www.w3.org/2000/svg"  width="600" height="380">
      <path d="M424.734 310.738h19.551V328h-19.55zm0 0" fill="#f0f0f0" />
      <path
        d="M532.281 145.012c.02 53.023-28.894 101.824-75.394 127.261a144.025 144.025 0 01-3.922 2.067c-4.883 2.492-9.91 4.7-15.05 6.605a122.547 122.547 0 01-6.208 2.153c-.2.07-.406.14-.61.195a144.573 144.573 0 01-122.992-16.848 141.39 141.39 0 01-10.945-7.918 142.5 142.5 0 01-10.351-9.074 144.596 144.596 0 01-44.395-104.441C242.414 64.922 307.301 0 387.348 0S532.28 64.922 532.28 145.012zm0 0"
        fill="#f2f2f2"
      />
      <path
        d="M421.96 212.684l-3.265 12.359 12.403 58.25a145.454 145.454 0 01-101.453-5.219l9.687-40.633.32-22.039 1.055-72.672.262-.136a.137.137 0 01.054-.024l24.672-12.675 42.57-1.067 31.766 15.48-.242.903zm0 0"
        fill="#3f3d56"
      />
      <path
        d="M439.367 318.875a10.41 10.41 0 012.773-15.707l-6.91-36.313 17.723 7.387 3.848 33.352a10.465 10.465 0 01-3.711 13.39 10.449 10.449 0 01-13.723-2.109zm0 0"
        fill="#9e616a"
      />
      <path
        d="M433.629 145.438l4.547-1.481s14.426 9.262 13.05 31.656c0 0 .544 11.59.024 19.301-.59 8.848 7.348 96.746 7.348 96.746H432.89l-11.016-79.601zm0 0"
        fill="#3f3d56"
      />
      <path
        d="M418.719 89.094c0 16.308-13.211 29.527-29.512 29.527-16.297 0-29.512-13.219-29.512-29.527 0-16.305 13.215-29.524 29.512-29.524 16.258-.043 29.473 13.11 29.512 29.38v.144zm0 0"
        fill="#9e616a"
      />
      <path
        d="M359.797 49.438c3.457-7.438 10.144-5.97 15.996-3.45 7.41-1.644 14.457-6.566 22.437-3.656 7.864 11.445 34.266 8.078 28.649 26.707-.004 4.465 8.398 1.867 6.93 9.18 4.453 14.07-16.067 40.715-27.848 35.105 2.914-5.344 9.57-17.476-.524-18.68-21.714 20.215-2.242-38.492-29.523-21.417-9.031 8.27-21.398-15.516-16.117-23.79zm0 0"
        fill="#2f2e41"
      />
      <path
        d="M404.953 286.285l-47.105-9.336 12.078-61.02c16.668 6.31 32.37 9.419 47.11 9.337-12.88 18.898-18.731 39.187-12.083 61.02zm0 0"
        fill="#e4e4e4"
      />
      <path
        d="M398.105 289.867l-47.109-9.336c-3.867-27.64-.351-48.457 12.082-61.02 16.668 6.31 32.367 9.423 47.106 9.337a168.142 168.142 0 00-12.079 61.02zm0 0"
        fill="#1e488f"
      />
      <path
        d="M366.895 272.871a10.403 10.403 0 00-13.391-8.66l-21.875-29.79-6.656 18.017 21.793 25.527a10.455 10.455 0 0012.324 6.398 10.462 10.462 0 007.805-11.492zm0 0"
        fill="#9e616a"
      />
      <path
        d="M347.277 144.305l-3.96-2.68s-23.583 2.195-28.434 24.102c0 0-3.547 13.16-5.176 20.714-.84 3.887-12.012 41.434-12.012 41.434l37.89 41.43 10.353-15.535-10.352-25.895zm0 0"
        fill="#3f3d56"
      />
      <path
        d="M0 72.805h19.555v17.261H0zm0 0M41.984 141.855H61.54v17.266H41.984zm0 0M72.469 259.82h19.554v17.266H72.47zm0 0"
        fill="#1e488f"
      />
      <path
        d="M72.61 33.172c-1.208 0-2.188.98-2.188 2.187 0 1.207.98 2.188 2.187 2.188h159.575a2.187 2.187 0 000-4.375zm0 0M72.61 46.293a2.184 2.184 0 00-2.192 2.184 2.186 2.186 0 002.184 2.191h100.882c1.207 0 2.184-.98 2.184-2.188a2.186 2.186 0 00-2.184-2.187zm0 0M51.902 190.27a2.182 2.182 0 00-2.183 2.183c0 1.211.976 2.188 2.183 2.188h159.575c1.207 0 2.18-.98 2.18-2.188a2.181 2.181 0 00-2.18-2.183zm0 0M51.902 203.387a2.191 2.191 0 00-2.191 2.183c0 1.207.977 2.192 2.184 2.192h100.882a2.189 2.189 0 000-4.375zm0 0M142.777 302.48a2.186 2.186 0 100 4.372h159.57a2.185 2.185 0 002.18-2.188 2.181 2.181 0 00-2.18-2.184zm0 0M142.777 315.598a2.19 2.19 0 00-2.195 2.183c0 1.207.977 2.192 2.184 2.192h100.882a2.189 2.189 0 000-4.375zm0 0"
        fill="#e4e4e4"
      />
      <path
        d="M9.195 81.512a35.97 35.97 0 0022.817-16.117 34.539 34.539 0 003.457-7.38.871.871 0 00-.547-1.07.866.866 0 00-1.086.512 34.261 34.261 0 01-17.672 19.89 32.497 32.497 0 01-7.293 2.47c-1.086.23-.766 1.925.324 1.695zm0 0"
        fill="#3f3d56"
      />
      <path
        d="M26.008 61.32c3.11-1.754 6.219-3.504 9.328-5.258.144-.082.547-.386.7-.351-.122-.027-.013.062-.009.172.004.144.024.297.028.445.035.906.05 1.817.078 2.727l.144 5.226c.032 1.102 1.75 1.23 1.723.117l-.172-6.136c-.039-1.407.313-4.524-1.965-4.254-.82.097-1.582.672-2.281 1.066l-2.84 1.602-5.476 3.086c-.965.543-.227 2.105.742 1.558zm0 0M51.938 150.426a35.988 35.988 0 00-22.137 17.02 34.663 34.663 0 00-3.156 7.511.863.863 0 001.664.457 34.294 34.294 0 0116.898-20.574 32.333 32.333 0 017.191-2.746c1.075-.274.622-1.938-.46-1.668zm0 0"
        fill="#3f3d56"
      />
      <path
        d="M35.941 171.281l-9.015 5.563c-.156.094-.309.199-.469.281-.16.086-.324.082-.219.184-.14-.137-.105-.645-.117-.797l-.527-7.828c-.074-1.102-1.797-1.11-1.723 0l.41 6.125c.094 1.394-.164 4.28 1.969 4.164.95-.051 1.855-.832 2.637-1.313l2.574-1.59 5.352-3.3c.94-.583.078-2.075-.872-1.489zm0 0M81.61 267.754a34.253 34.253 0 0121.105 16.226 32.261 32.261 0 012.98 7.098.863.863 0 001.664-.457 35.966 35.966 0 00-17.691-21.605 34.45 34.45 0 00-7.602-2.926c-1.074-.27-1.535 1.394-.457 1.664zm0 0"
        fill="#3f3d56"
      />
      <path
        d="M97.195 288.434l5.352 3.3 2.574 1.59c.781.48 1.684 1.262 2.633 1.313 2.137.117 1.875-2.77 1.969-4.164l.414-6.125c.074-1.11-1.653-1.106-1.727 0l-.351 5.218-.168 2.493c-.012.191.039.753-.121.914.113-.114-.004-.059-.133-.137-.184-.113-.371-.219-.555-.332l-9.016-5.559c-.949-.586-1.816.907-.87 1.489zm0 0"
        fill="#3f3d56"
      />
      <path
        d="M47.16 41.156a8.053 8.053 0 01-8.05 8.055 8.053 8.053 0 01-8.051-8.055c0-4.449 3.605-8.058 8.05-8.058 4.446 0 8.051 3.609 8.051 8.058zm0 0M33.36 199.016a8.054 8.054 0 11-16.106 0c0-4.45 3.605-8.059 8.05-8.059 4.45 0 8.055 3.61 8.055 8.059zm0 0M120.203 311.035a8.053 8.053 0 11-16.105 0 8.054 8.054 0 1116.105 0zm0 0"
        fill="#1e488f"
      />
    </svg>