    <svg
      xmlns="http://www.w3.org/2000/svg"
      xmlnsXlink="http://www.w3.org/1999/xlink"
      width= "417"
      height="300"
      >
      <defs>
        <clipPath id="prefix__b">
          <path d="M0 0h417v300H0z" />
        </clipPath>
        <clipPath id="prefix__c">
          <path d="M0 0h417v300H0z" />
        </clipPath>
        <clipPath id="prefix__d">
          <path d="M0 0h417v300H0z" />
        </clipPath>
        <clipPath id="prefix__e">
          <path d="M0 0h417v300H0z" />
        </clipPath>
        <mask id="prefix__g">
          <g filter="url(#prefix__a)">
            <path fillOpacity="0.2" d="M0 0h417v300H0z" />
          </g>
        </mask>
        <mask id="prefix__i">
          <g filter="url(#prefix__a)">
            <path fillOpacity="0.2" d="M0 0h417v300H0z" />
          </g>
        </mask>
        <mask id="prefix__k">
          <g filter="url(#prefix__a)">
            <path fillOpacity="0.102" d="M0 0h417v300H0z" />
          </g>
        </mask>
        <mask id="prefix__m">
          <g filter="url(#prefix__a)">
            <path fillOpacity="0.102" d="M0 0h417v300H0z" />
          </g>
        </mask>
        <g id="prefix__f" clipPath="url(#prefix__b)">
          <path
            d="M165.984 139.89c0 18.231-14.773 33.012-32.996 33.012-18.222 0-32.996-14.78-32.996-33.011 0-18.235 14.774-33.012 32.996-33.012 18.223 0 32.996 14.777 32.996 33.012zm0 0"
            fill="#016795"
          />
        </g>
        <g id="prefix__h" clipPath="url(#prefix__c)">
          <path
            d="M156.227 139.89c0 12.84-10.403 23.247-23.239 23.247-12.832 0-23.238-10.407-23.238-23.246 0-12.84 10.406-23.25 23.238-23.25 12.836 0 23.239 10.41 23.239 23.25zm0 0"
            fill="#016795"
          />
        </g>
        <g id="prefix__j" clipPath="url(#prefix__d)">
          <path d="M269.719 47.953s2 14.008-6.57 17.152c-8.575 3.145-5.43 7.434-5.43 7.434l12.86 6.29 13.714-4.29 4.57-6.863s-7.43-1.715-5.425-6.86c2-5.144 2.57-6.863 2.57-6.863zm0 0" />
        </g>
        <g id="prefix__l" clipPath="url(#prefix__e)">
          <path d="M305.723 87.977s-2 26.3-1.426 27.441c.57 1.144 0 40.883 0 40.883s4 21.441-1.145 22.586c-5.144 1.144-4-24.016-4-24.016l-5.144-33.16.57-32.879zm0 0" />
        </g>
        <filter
          id="prefix__a"
          filterUnits="objectBoundingBox"
          x="0%"
          y="0%"
          width="100%"
          height="100%">
          <feColorMatrix
            in="SourceGraphic"
            values="0 0 0 0 1 0 0 0 0 1 0 0 0 0 1 0 0 0 1 0"
          />
        </filter>
      </defs>
      <path
        d="M416.957 300.117c-21.484-3.148-42.148-5.863-61.988-8.14l7.847-12.704c-2.644-.78-14.265 6.461-14.265 6.461l10.297-36.925c-13.301 1.28-20.07 39.004-20.07 39.004l-14.86-12.833 7.195 14.38c-60.722-6.27-113.16-8.731-157.27-9.016l6.716-10.871c-2.645-.782-14.266 6.457-14.266 6.457l10.297-36.922c-13.3 1.281-20.067 39-20.067 39l-14.859-12.832 7.617 15.234c-36.976.45-67.133 2.422-90.406 4.727 6.79-16.953 29.86-32.996 29.86-32.996-17.618 4.304-26.86 11.617-31.688 18.449-.367-20.969 2.113-59.836 20.562-102.79 0 0-36.418 66.192-31.777 110.759l.555 7.914C15.52 290.03 0 293.809 0 293.809zm0 0"
        fill="#3f3d56"
      />
      <path
        d="M221.71 12.02v267.484c-.007 6.633-5.382 12.012-12.015 12.012H101.156a11.998 11.998 0 01-12.015-12.012V12.02C89.14 5.383 94.52 0 101.156 0h16.242v2.082c0 5.469 4.426 9.898 9.891 9.902h55.203a9.803 9.803 0 005.867-1.933 9.863 9.863 0 004.023-7.969V0h17.313c6.637-.004 12.016 5.383 12.016 12.02zm0 0"
        fill="#3f3d56"
      />
      <path
        d="M122.266 44.566a2.89 2.89 0 01-2.887 2.891 2.888 2.888 0 010-5.777 2.887 2.887 0 012.887 2.886zm0 0"
        fill="#f2f2f2"
      />
      <path
        d="M189.332 9.234a9.198 9.198 0 01-.973.817 51.655 51.655 0 0033.352 24.84V33.6a50.442 50.442 0 01-32.379-24.367zm0 0M164.66 11.984h-1.351a74.939 74.939 0 0058.402 46.649v-1.278a73.658 73.658 0 01-57.05-45.37zm0 0M139.742 11.984h-1.304C149.34 49.84 182.233 78.02 221.71 82.598V81.34c-38.793-4.559-71.121-32.2-81.969-69.356zm0 0"
        fill="#016795"
      />
      <path
        d="M109.89 65.953h-.75V65.2h-.148v.754h-.75v.145h.75v.754h.149v-.754h.75zm0 0M160.625 28.398h-.754v-.75h-.144v.75h-.754v.149h.754v.75h.144v-.75h.754zm0 0M117.316 95.664h-.754v-.754h-.144v.754h-.754v.145h.754v.754h.144v-.754h.754zm0 0M151.96 73.793h-.75v-.754h-.148v.754h-.75v.144h.75v.754h.149v-.754h.75zm0 0M201.457 87.41h-.75v-.754h-.148v.754h-.75v.145h.75v.754h.148v-.754h.75zm0 0"
        fill="#f2f2f2"
      />
      <path
        d="M194.445 51.582c0 .91-.738 1.652-1.648 1.652-.91 0-1.652-.742-1.652-1.652 0-.91.742-1.652 1.652-1.652.91 0 1.648.742 1.648 1.652zm0 0"
        fill="#ff6584"
      />
      <path
        d="M133.691 90.29l-.937.144c.293 1.875.523 3.789.691 5.683l.946-.086a85.303 85.303 0 00-.7-5.742zm0 0M131.129 79.008l-.906.277a78.706 78.706 0 011.453 5.528l.93-.211a86.62 86.62 0 00-1.477-5.594zm0 0M127.043 68.188l-.863.394a85.04 85.04 0 012.207 5.277l.886-.332a85.037 85.037 0 00-2.23-5.34zm0 0M121.516 58.043l-.801.508a85.486 85.486 0 012.902 4.922l.832-.453a82.625 82.625 0 00-2.933-4.977zm0 0M114.645 48.746l-.723.617a83.951 83.951 0 013.555 4.48l.757-.566a83.4 83.4 0 00-3.59-4.53zm0 0M106.566 40.469l-.632.707a80.79 80.79 0 014.136 3.957l.68-.664a84.276 84.276 0 00-4.184-4zm0 0M97.441 33.363l-.53.785a79.88 79.88 0 014.632 3.36l.586-.75a86.607 86.607 0 00-4.688-3.395zm0 0M89.14 28.43v1.07c.985.516 1.962 1.059 2.919 1.61l.476-.82a81.302 81.302 0 00-3.394-1.86zm0 0M133.477 179.422c.152-.922.293-1.863.418-2.797l.94.125c-.124.945-.269 1.895-.425 2.828zm0 0M130.832 190.559l.906.28a88.717 88.717 0 001.532-5.585l-.926-.219a84.21 84.21 0 01-1.512 5.524zm0 0M126.691 201.215l.86.406a80.54 80.54 0 002.277-5.316l-.883-.348a81.197 81.197 0 01-2.254 5.258zm0 0M121.117 211.215l.797.52a86.004 86.004 0 002.992-4.958l-.828-.464a83.296 83.296 0 01-2.96 4.902zm0 0M114.223 220.352l.718.625a89.083 89.083 0 003.645-4.504l-.758-.567a84.896 84.896 0 01-3.605 4.446zm0 0M106.148 228.457l.625.715a86.118 86.118 0 004.223-3.957l-.668-.672a86.216 86.216 0 01-4.18 3.914zm0 0M97.05 235.387l.528.793a84.958 84.958 0 004.715-3.348l-.57-.758a81.366 81.366 0 01-4.672 3.313zm0 0M92.64 239.195a83.086 83.086 0 01-3.5 1.871V240a89.818 89.818 0 003.032-1.625zm0 0M133.754 101.969l.95-.016c.015.957.019 1.918.003 2.86l-.95-.012c.016-.934.013-1.883-.003-2.832zm0 0"
        fill="#e6e6e6"
      />
      <path
        d="M93.305 124.469h97.015c15.035 0 27.223 12.195 27.223 27.234v3.606h-97.016c-15.035 0-27.222-12.192-27.222-27.235zm0 0"
        fill="#fff"
      />
      <path
        d="M157.691 291.137c-.093-.157-2.328-3.883-3.101-11.625-.707-7.102-.254-19.075 5.953-35.778 11.758-31.636-2.707-57.164-2.856-57.422l.711-.414c.04.067 3.774 6.575 5.977 16.938a73.906 73.906 0 01-3.059 41.187c-11.738 31.582-3.011 46.536-2.921 46.684zm0 0"
        fill="#f2f2f2"
      />
      <path
        d="M158.457 179.094a5.365 5.365 0 01-5.363 5.363 5.365 5.365 0 010-10.73 5.366 5.366 0 015.363 5.367zm0 0"
        fill="#016795"
      />
      <path
        d="M175.367 198.898a5.366 5.366 0 01-5.363 5.368 5.362 5.362 0 01-5.36-5.368 5.361 5.361 0 1110.723 0zm0 0"
        fill="#f2f2f2"
      />
      <path
        d="M163.816 212.105a5.361 5.361 0 11-10.722 0 5.366 5.366 0 015.363-5.367c2.961 0 5.36 2.403 5.36 5.367zm0 0M177.84 223.246a5.361 5.361 0 11-10.723 0 5.361 5.361 0 1110.723 0zm0 0"
        fill="#016795"
      />
      <path
        d="M159.691 240.578a5.361 5.361 0 11-10.722 0 5.362 5.362 0 1110.722 0zm0 0M160.93 291.336s-5.36-13.207 10.726-23.11zm0 0M154.336 291.094s-2.441-14.043-21.328-13.922zm0 0"
        fill="#f2f2f2"
      />
      <use xlinkHref="#prefix__f" mask="url(#prefix__g)" />
      <use xlinkHref="#prefix__h" mask="url(#prefix__i)" />
      <path
        d="M148.324 139.89c0 8.473-6.863 15.344-15.336 15.344-8.468 0-15.336-6.87-15.336-15.343 0-8.477 6.868-15.344 15.336-15.344 8.473 0 15.336 6.867 15.336 15.344zm0 0"
        fill="#016795"
      />
      <path
        d="M135.777 136.582a2.788 2.788 0 10-4.55 2.16l-1.028 7.192h5.578l-1.027-7.192a2.778 2.778 0 001.027-2.16zm0 0"
        fill="#fff"
      />
      <path
        d="M287.117 21.996s-9.199-8.254-21.566 7.297c-12.371 15.55-31.723 23.168-36.164 29.195 0 0 18.398-7.617 24.742-10.789 6.344-3.172 6.027-2.539 6.027-2.539s-8.562 6.031-10.148 12.059c-1.586 6.031-.32 11.11-3.172 17.136-2.856 6.032 54.555 4.125 54.555 4.125s5.71-9.835 4.125-19.992c-1.586-10.152-.633-35.222-18.399-36.492zm0 0"
        fill="#2f2e41"
      />
      <path
        d="M269.719 47.953s2 14.008-6.57 17.152c-8.575 3.145-5.43 7.434-5.43 7.434l12.86 6.29 13.714-4.29 4.57-6.863s-7.43-1.715-5.425-6.86c2-5.144 2.57-6.863 2.57-6.863zm0 0"
        fill="#ffb9b9"
      />
      <use xlinkHref="#prefix__j" mask="url(#prefix__k)" />
      <path
        d="M305.723 87.977s-2 26.3-1.426 27.441c.57 1.144 0 40.883 0 40.883s4 21.441-1.145 22.586c-5.144 1.144-4-24.016-4-24.016l-5.144-33.16.57-32.879zm0 0"
        fill="#ffb9b9"
      />
      <use xlinkHref="#prefix__l" mask="url(#prefix__m)" />
      <path
        d="M250.004 167.164s-9.43 35.734-9.145 53.176c.286 17.437 4 41.738 4 41.738s.57 10.578-.285 11.723c-.86 1.14 4.285 6.004 4.285 6.004l5.43-3.149 2-2.285v-2s-3.144-9.723-.57-17.441c2.57-7.72 4-27.157 1.43-33.16l17.714-52.606zm0 0"
        fill="#ffb9b9"
      />
      <path
        d="M249.43 275.23s-3.426-4.289-5.715-2.859c-2.285 1.43-6 11.149-6 11.149s-12.86 12.293-3.715 12.863c9.145.574 13.145-2.57 14.29-4.86 1.14-2.285 11.714-8.289 11.714-8.289s-1.145-10.863-2.856-11.148c-1.714-.29-4.289 4.285-4.289 4.285zm0 0"
        fill="#2f2e41"
      />
      <path
        d="M281.148 169.453v35.45c.036 4.3.32 8.597.86 12.863.855 6.289-4.86 53.175-4.86 53.175l.57 8.29 7.145-.57.86-7.15 10.285-31.445s3.43-19.156 1.715-26.3c-1.715-7.149 8.859-52.891 8.859-52.891zm0 0"
        fill="#ffb9b9"
      />
      <path
        d="M275.434 277.23l2.117-.46s1.597-3.543 3.597-2.684a21.61 21.61 0 013.98 2.383l.88 1.617s2 4.289 4.57 7.148c2.574 2.86 5.43 9.149 1.145 9.72-4.286.573-10 .858-11.715-.571-1.715-1.43-.574-3.715-2.29-4.29-1.71-.57-3.14-2.284-2.855-2.859.285-.57.57-10.004.57-10.004zm0 0"
        fill="#2f2e41"
      />
      <path
        d="M293.848 45.094c0 7.015-5.684 12.703-12.7 12.703-7.011 0-12.699-5.688-12.699-12.703 0-7.02 5.688-12.707 12.7-12.707 7.015 0 12.699 5.687 12.699 12.707zm0 0"
        fill="#ffb9b9"
      />
      <path
        d="M257.148 67.39l3.774-1.316s-1.488 2.461 6.512 3.89c8 1.43 16.285 1.934 20.003-2.75 0 0 1.426-.679 3.426 1.321 2.004 2 3.145 1.43 3.145 1.43l-1.43 7.433-2.855 13.723-3.715 10.29-10.574-2.286-11.43-8.293-4.285-11.148v-10.29zm0 0"
        fill="#016795"
      />
      <path
        d="M292.008 71.395l2.86-2s9.714 1.714 10.284 6.289l-7.43 14.293a16.276 16.276 0 01-.284 12.293c-2.86 6.574-2.57 8.003-2.57 8.003l-2 8.579-36.294 2.859s-1.43-3.434-2-4.004c-.57-.57-.57-2.574 0-2.574s0-.856-.57-1.715c-.57-.856-.86-1.145 0-2.285.855-1.145-1.43-11.438-1.43-11.438V88.547l-9.715-12.863s3.43-5.149 5.145-5.72c1.715-.57 9.867-2.827 9.867-2.827l1.848 2.718 2.57 20.692 3.715 12.578 15.64-2.656 6.079-10.207 4-12.008zm0 0"
        fill="#016795"
      />
      <path
        d="M302.867 73.965l2.285 1.719s2 16.007 1.43 17.152c-.57 1.144-10.574 2.285-10.86 1.715-.284-.57 7.145-20.586 7.145-20.586zm0 0"
        fill="#016795"
      />
      <path
        d="M255.719 65.96l2.855 18.872s-2.57 28.016-2 33.734l.574 1.715s-1.144-.574-1.43.57c-.284 1.145 0 4.86 0 4.86s-1.714 1.715-2.284 11.148c-.575 9.438-7.43 32.02-4.86 32.88 2.57.855 18.004 5.144 26.29 4.288 8.284-.859 38.003-10.863 37.718-13.437-.285-2.574-14.574-38.88-14.574-38.88s-2.57-4.288-2.57-4.862c0-.57 3.43-2.856 2.57-5.145-.856-2.285-5.43-26.3-5.43-26.3l3.145-17.153-4.286-1.145-3.144 16.582s-12.285 6.004-25.145.57L260.29 64.82zm0 0M269.465 35.973s21.148 14.582 26.863 8.007c5.715-6.578-10.004-12.292-10.004-12.292l-13.144-1.43zm0 0"
        fill="#2f2e41"
      />
      <path
        d="M236.613 191.078a11.145 11.145 0 0014.688-1.215 11.156 11.156 0 00.648-14.73 11.144 11.144 0 00-14.527-2.5 11.16 11.16 0 00-4.309 14.101l-29.164 24.293-3.883-4.609-1.742 1.168-1.941-2.309 1.594-1.343-1.942-2.305-2.48 2.09 1.191 1.422-2.656 2.238-1.195-1.418-3.899 3.289 1.79 2.129 1.417-1.195 1.942 2.304-1.77 1.492 3.582 4.258-4.254 3.586 4.332 5.14zm7.282-16.297c4.058.344 7.066 3.918 6.718 7.98a7.377 7.377 0 01-7.976 6.723 7.377 7.377 0 01-6.719-7.98 7.372 7.372 0 017.977-6.723zm0 0"
        fill="#016795"
      />
      <path
        d="M240.86 91.406s2 26.301 1.43 27.446c-.575 1.14 0 40.878 0 40.878s-4.005 21.442 1.14 22.586c5.144 1.145 4-24.015 4-24.015l5.144-33.16-.57-32.88zm0 0"
        fill="#ffb9b9"
      />
      <path
        d="M245.145 74.824l-2.286.86s-4.285 18.007-3.144 18.007c1.144 0 14.86 1.715 14.86 1.145 0-.57-2.571-14.578-2.571-14.578zm0 0"
        fill="#016795"
      />
    </svg>