{
  "accessors": [
    {
      "bufferView": 1,
      "componentType": 5126,
      "count": 1665,
      "max": [
        1.0322457551956177,
        0.78004789352416992,
        6.367497444152832
      ],
      "min": [
        0.84476768970489502,
        0.55486780405044556,
        6.2261137962341309
      ],
      "type": "VEC3"
    },
    {
      "bufferView": 1,
      "byteOffset": 19980,
      "componentType": 5126,
      "count": 1665,
      "max": [
        0.99497354030609131,
        0.99997520446777344,
        0.99895954132080078
      ],
      "min": [
        -0.99518889188766479,
        -0.99995839595794678,
        -0.99980610609054565
      ],
      "type": "VEC3"
    },
    {
      "bufferView": 0,
      "componentType": 5125,
      "count": 9324,
      "max": [
        1664
      ],
      "min": [
        0
      ],
      "type": "SCALAR"
    },
    {
      "bufferView": 1,
      "byteOffset": 39960,
      "componentType": 5126,
      "count": 24001,
      "max": [
        1.5009908676147461,
        0.97908532619476318,
        5.9384040832519531
      ],
      "min": [
        0.37595701217651367,
        0.13213935494422913,
        4.5687084197998047
      ],
      "type": "VEC3"
    },
    {
      "bufferView": 1,
      "byteOffset": 327972,
      "componentType": 5126,
      "count": 24001,
      "max": [
        0.99986755847930908,
        0.9999883770942688,
        0.99986010789871216
      ],
      "min": [
        -0.99986761808395386,
        -0.99986815452575684,
        -0.99998658895492554
      ],
      "type": "VEC3"
    },
    {
      "bufferView": 0,
      "byteOffset": 37296,
      "componentType": 5125,
      "count": 142884,
      "max": [
        24000
      ],
      "min": [
        0
      ],
      "type": "SCALAR"
    },
    {
      "bufferView": 1,
      "byteOffset": 615984,
      "componentType": 5126,
      "count": 40363,
      "max": [
        1.1325631141662598,
        1.0598840713500977,
        6.256446361541748
      ],
      "min": [
        0.74442988634109497,
        0.4661727249622345,
        3.9365839958190918
      ],
      "type": "VEC3"
    },
    {
      "bufferView": 1,
      "byteOffset": 1100340,
      "componentType": 5126,
      "count": 40363,
      "max": [
        0.99998658895492554,
        0.99998390674591064,
        0.99999815225601196
      ],
      "min": [
        -0.99998903274536133,
        -0.99990034103393555,
        -0.99999445676803589
      ],
      "type": "VEC3"
    },
    {
      "bufferView": 0,
      "byteOffset": 608832,
      "componentType": 5125,
      "count": 226944,
      "max": [
        40362
      ],
      "min": [
        0
      ],
      "type": "SCALAR"
    },
    {
      "bufferView": 1,
      "byteOffset": 1584696,
      "componentType": 5126,
      "count": 5440,
      "max": [
        1.7457993030548096,
        0.97249764204025269,
        5.8201999664306641
      ],
      "min": [
        0.13136100769042969,
        0.54865700006484985,
        5.2182192802429199
      ],
      "type": "VEC3"
    },
    {
      "bufferView": 1,
      "byteOffset": 1649976,
      "componentType": 5126,
      "count": 5440,
      "max": [
        0.99805682897567749,
        0.99928402900695801,
        0.99989485740661621
      ],
      "min": [
        -0.99863803386688232,
        -0.99986696243286133,
        -0.9999086856842041
      ],
      "type": "VEC3"
    },
    {
      "bufferView": 0,
      "byteOffset": 1516608,
      "componentType": 5125,
      "count": 32292,
      "max": [
        5439
      ],
      "min": [
        0
      ],
      "type": "SCALAR"
    },
    {
      "bufferView": 1,
      "byteOffset": 1715256,
      "componentType": 5126,
      "count": 3865,
      "max": [
        1.3765586614608765,
        0.87925457954406738,
        1.8074311017990112
      ],
      "min": [
        0.50040417909622192,
        0.52750778198242188,
        0.2072288990020752
      ],
      "type": "VEC3"
    },
    {
      "bufferView": 1,
      "byteOffset": 1761636,
      "componentType": 5126,
      "count": 3865,
      "max": [
        0.99998819828033447,
        0.99962681531906128,
        0.99778246879577637
      ],
      "min": [
        -0.99999147653579712,
        -0.99985039234161377,
        -0.99994701147079468
      ],
      "type": "VEC3"
    },
    {
      "bufferView": 0,
      "byteOffset": 1645776,
      "componentType": 5125,
      "count": 22956,
      "max": [
        3864
      ],
      "min": [
        0
      ],
      "type": "SCALAR"
    },
    {
      "bufferView": 1,
      "byteOffset": 1808016,
      "componentType": 5126,
      "count": 9370,
      "max": [
        1.4515702724456787,
        1.0076721906661987,
        0.28927826881408691
      ],
      "min": [
        0.42537742853164673,
        0,
        0
      ],
      "type": "VEC3"
    },
    {
      "bufferView": 1,
      "byteOffset": 1920456,
      "componentType": 5126,
      "count": 9370,
      "max": [
        0.99980401992797852,
        0.99996030330657959,
        0.9990239143371582
      ],
      "min": [
        -0.99980330467224121,
        -0.99962252378463745,
        -0.9994051456451416
      ],
      "type": "VEC3"
    },
    {
      "bufferView": 0,
      "byteOffset": 1737600,
      "componentType": 5125,
      "count": 55056,
      "max": [
        9369
      ],
      "min": [
        0
      ],
      "type": "SCALAR"
    },
    {
      "bufferView": 1,
      "byteOffset": 2032896,
      "componentType": 5126,
      "count": 4908,
      "max": [
        1.8771255016326904,
        0.75750219821929932,
        5.6653938293457031
      ],
      "min": [
        0,
        0.50786930322647095,
        4.1579470634460449
      ],
      "type": "VEC3"
    },
    {
      "bufferView": 1,
      "byteOffset": 2091792,
      "componentType": 5126,
      "count": 4908,
      "max": [
        0.99996596574783325,
        0.99995660781860352,
        0.99969851970672607
      ],
      "min": [
        -0.99988716840744019,
        -0.99980908632278442,
        -0.99894469976425171
      ],
      "type": "VEC3"
    },
    {
      "bufferView": 0,
      "byteOffset": 1957824,
      "componentType": 5125,
      "count": 29256,
      "max": [
        4907
      ],
      "min": [
        0
      ],
      "type": "SCALAR"
    },
    {
      "bufferView": 1,
      "byteOffset": 2150688,
      "componentType": 5126,
      "count": 2473,
      "max": [
        1.8385078907012939,
        0.7686343789100647,
        4.3333115577697754
      ],
      "min": [
        0.038504540920257568,
        0.57546770572662354,
        3.2279267311096191
      ],
      "type": "VEC3"
    },
    {
      "bufferView": 1,
      "byteOffset": 2180364,
      "componentType": 5126,
      "count": 2473,
      "max": [
        0.99996268749237061,
        0.99994474649429321,
        0.99971544742584229
      ],
      "min": [
        -0.99992823600769043,
        -0.99980509281158447,
        -0.99511158466339111
      ],
      "type": "VEC3"
    },
    {
      "bufferView": 0,
      "byteOffset": 2074848,
      "componentType": 5125,
      "count": 14640,
      "max": [
        2472
      ],
      "min": [
        0
      ],
      "type": "SCALAR"
    },
    {
      "bufferView": 1,
      "byteOffset": 2210040,
      "componentType": 5126,
      "count": 49109,
      "max": [
        1.2217966318130493,
        0.89911139011383057,
        6.9095478057861328
      ],
      "min": [
        0.65513515472412109,
        0.10897162556648254,
        6.044703483581543
      ],
      "type": "VEC3"
    },
    {
      "bufferView": 1,
      "byteOffset": 2799348,
      "componentType": 5126,
      "count": 49109,
      "max": [
        0.9999956488609314,
        0.99999523162841797,
        0.99998587369918823
      ],
      "min": [
        -0.99999439716339111,
        -0.99990361928939819,
        -0.99997764825820923
      ],
      "type": "VEC3"
    },
    {
      "bufferView": 0,
      "byteOffset": 2133408,
      "componentType": 5125,
      "count": 291030,
      "max": [
        49108
      ],
      "min": [
        0
      ],
      "type": "SCALAR"
    },
    {
      "bufferView": 1,
      "byteOffset": 3388656,
      "componentType": 5126,
      "count": 15680,
      "max": [
        1.4745168685913086,
        1.0636835098266602,
        4.1556811332702637
      ],
      "min": [
        0.40264433622360229,
        0.29090586304664612,
        3.3002996444702148
      ],
      "type": "VEC3"
    },
    {
      "bufferView": 1,
      "byteOffset": 3576816,
      "componentType": 5126,
      "count": 15680,
      "max": [
        0.9998784065246582,
        0.9998900294303894,
        0.99977380037307739
      ],
      "min": [
        -0.99981123208999634,
        -0.99992352724075317,
        -0.9998621940612793
      ],
      "type": "VEC3"
    },
    {
      "bufferView": 0,
      "byteOffset": 3297528,
      "componentType": 5125,
      "count": 91806,
      "max": [
        15679
      ],
      "min": [
        0
      ],
      "type": "SCALAR"
    },
    {
      "bufferView": 1,
      "byteOffset": 3764976,
      "componentType": 5126,
      "count": 6255,
      "max": [
        1.5345196723937988,
        0.81302177906036377,
        3.6930184364318848
      ],
      "min": [
        0.34236335754394531,
        0.47581067681312561,
        1.7713663578033447
      ],
      "type": "VEC3"
    },
    {
      "bufferView": 1,
      "byteOffset": 3840036,
      "componentType": 5126,
      "count": 6255,
      "max": [
        0.99973946809768677,
        0.99984759092330933,
        0.9995759129524231
      ],
      "min": [
        -0.99972808361053467,
        -0.99997794628143311,
        -0.99963468313217163
      ],
      "type": "VEC3"
    },
    {
      "bufferView": 0,
      "byteOffset": 3664752,
      "componentType": 5125,
      "count": 37332,
      "max": [
        6254
      ],
      "min": [
        0
      ],
      "type": "SCALAR"
    },
    {
      "bufferView": 1,
      "byteOffset": 3915096,
      "componentType": 5126,
      "count": 23276,
      "max": [
        1.0302268266677856,
        0.88945376873016357,
        6.0210785865783691
      ],
      "min": [
        0.84670090675354004,
        0.60982388257980347,
        5.8865814208984375
      ],
      "type": "VEC3"
    },
    {
      "bufferView": 1,
      "byteOffset": 4194408,
      "componentType": 5126,
      "count": 23276,
      "max": [
        0.99999213218688965,
        0.99999910593032837,
        0.99999421834945679
      ],
      "min": [
        -0.99998092651367188,
        -0.99980014562606812,
        -0.99998438358306885
      ],
      "type": "VEC3"
    },
    {
      "bufferView": 0,
      "byteOffset": 3814080,
      "componentType": 5125,
      "count": 139320,
      "max": [
        23275
      ],
      "min": [
        0
      ],
      "type": "SCALAR"
    },
    {
      "bufferView": 1,
      "byteOffset": 4473720,
      "componentType": 5126,
      "count": 2014,
      "max": [
        1.0372682809829712,
        0.73627442121505737,
        6.3494586944580078
      ],
      "min": [
        0.83954644203186035,
        0.55355972051620483,
        6.2761406898498535
      ],
      "type": "VEC3"
    },
    {
      "bufferView": 1,
      "byteOffset": 4497888,
      "componentType": 5126,
      "count": 2014,
      "max": [
        0.99970865249633789,
        0.9999082088470459,
        0.99998283386230469
      ],
      "min": [
        -0.99902862310409546,
        -0.99999397993087769,
        -0.99890619516372681
      ],
      "type": "VEC3"
    },
    {
      "bufferView": 0,
      "byteOffset": 4371360,
      "componentType": 5125,
      "count": 11970,
      "max": [
        2013
      ],
      "min": [
        0
      ],
      "type": "SCALAR"
    },
    {
      "bufferView": 1,
      "byteOffset": 4522056,
      "componentType": 5126,
      "count": 1490,
      "max": [
        1.0689902305603027,
        0.49546980857849121,
        5.7475838661193848
      ],
      "min": [
        0.80802762508392334,
        0.11883443593978882,
        4.9640288352966309
      ],
      "type": "VEC3"
    },
    {
      "bufferView": 1,
      "byteOffset": 4539936,
      "componentType": 5126,
      "count": 1490,
      "max": [
        0.99679112434387207,
        0.99574452638626099,
        0.9874880313873291
      ],
      "min": [
        -0.99745935201644897,
        -0.99972778558731079,
        -0.9717598557472229
      ],
      "type": "VEC3"
    },
    {
      "bufferView": 0,
      "byteOffset": 4419240,
      "componentType": 5125,
      "count": 8838,
      "max": [
        1489
      ],
      "min": [
        0
      ],
      "type": "SCALAR"
    },
    {
      "bufferView": 1,
      "byteOffset": 4557816,
      "componentType": 5126,
      "count": 9395,
      "max": [
        1.8409595489501953,
        0.79910540580749512,
        3.256986141204834
      ],
      "min": [
        0.035988271236419678,
        0.4095340371131897,
        2.5796627998352051
      ],
      "type": "VEC3"
    },
    {
      "bufferView": 1,
      "byteOffset": 4670556,
      "componentType": 5126,
      "count": 9395,
      "max": [
        0.99992871284484863,
        0.99989783763885498,
        0.99993020296096802
      ],
      "min": [
        -0.99992865324020386,
        -0.99998021125793457,
        -0.99965882301330566
      ],
      "type": "VEC3"
    },
    {
      "bufferView": 0,
      "byteOffset": 4454592,
      "componentType": 5125,
      "count": 54846,
      "max": [
        9394
      ],
      "min": [
        0
      ],
      "type": "SCALAR"
    },
    {
      "bufferView": 1,
      "byteOffset": 4783296,
      "componentType": 5126,
      "count": 1386,
      "max": [
        1.8719162940979004,
        0.71781229972839355,
        4.1999955177307129
      ],
      "min": [
        0.0050339102745056152,
        0.47171282768249512,
        3.2288563251495361
      ],
      "type": "VEC3"
    },
    {
      "bufferView": 1,
      "byteOffset": 4799928,
      "componentType": 5126,
      "count": 1386,
      "max": [
        0.99980956315994263,
        0.99908655881881714,
        0.99475735425949097
      ],
      "min": [
        -0.99948257207870483,
        -0.99189192056655884,
        -0.98449021577835083
      ],
      "type": "VEC3"
    },
    {
      "bufferView": 0,
      "byteOffset": 4673976,
      "componentType": 5125,
      "count": 8280,
      "max": [
        1385
      ],
      "min": [
        0
      ],
      "type": "SCALAR"
    },
    {
      "bufferView": 1,
      "byteOffset": 4816560,
      "componentType": 5126,
      "count": 2461,
      "max": [
        1.661587119102478,
        0.64438056945800781,
        5.7778139114379883
      ],
      "min": [
        0.21532851457595825,
        0.39547041058540344,
        5.6861696243286133
      ],
      "type": "VEC3"
    },
    {
      "bufferView": 1,
      "byteOffset": 4846092,
      "componentType": 5126,
      "count": 2461,
      "max": [
        0.99949151277542114,
        0.99706661701202393,
        0.99982070922851562
      ],
      "min": [
        -0.99956053495407104,
        -0.99964010715484619,
        -0.999686598777771
      ],
      "type": "VEC3"
    },
    {
      "bufferView": 0,
      "byteOffset": 4707096,
      "componentType": 5125,
      "count": 14742,
      "max": [
        2460
      ],
      "min": [
        0
      ],
      "type": "SCALAR"
    },
    {
      "bufferView": 1,
      "byteOffset": 4875624,
      "componentType": 5126,
      "count": 649,
      "max": [
        1.3344830274581909,
        0.59286928176879883,
        1.9238923788070679
      ],
      "min": [
        0.54248046875,
        0.47952273488044739,
        1.7081979513168335
      ],
      "type": "VEC3"
    },
    {
      "bufferView": 1,
      "byteOffset": 4883412,
      "componentType": 5126,
      "count": 649,
      "max": [
        0.99593764543533325,
        0.9957815408706665,
        0.992226243019104
      ],
      "min": [
        -0.99926990270614624,
        -0.99910992383956909,
        -0.98640060424804688
      ],
      "type": "VEC3"
    },
    {
      "bufferView": 0,
      "byteOffset": 4766064,
      "componentType": 5125,
      "count": 3852,
      "max": [
        648
      ],
      "min": [
        0
      ],
      "type": "SCALAR"
    },
    {
      "bufferView": 1,
      "byteOffset": 4891200,
      "componentType": 5126,
      "count": 1377,
      "max": [
        1.4193803071975708,
        0.8575626015663147,
        1.7122179269790649
      ],
      "min": [
        0.45747479796409607,
        0.64507508277893066,
        0.1765751838684082
      ],
      "type": "VEC3"
    },
    {
      "bufferView": 1,
      "byteOffset": 4907724,
      "componentType": 5126,
      "count": 1377,
      "max": [
        0.99975800514221191,
        0.99816238880157471,
        0.94716101884841919
      ],
      "min": [
        -0.99986535310745239,
        -0.99914771318435669,
        -0.98339569568634033
      ],
      "type": "VEC3"
    },
    {
      "bufferView": 0,
      "byteOffset": 4781472,
      "componentType": 5125,
      "count": 8166,
      "max": [
        1376
      ],
      "min": [
        0
      ],
      "type": "SCALAR"
    }
  ],
  "asset": {
    "extras": {
      "author": "Diego Luján García (https://sketchfab.com/diegoluga)",
      "license": "CC-BY-4.0 (http://creativecommons.org/licenses/by/4.0/)",
      "source": "https://sketchfab.com/3d-models/skeleton-4de7b96a351a4a35b1b6e5415277ff07",
      "title": "Skeleton"
    },
    "generator": "Sketchfab-6.22.0",
    "version": "2.0"
  },
  "bufferViews": [
    {
      "buffer": 0,
      "byteLength": 4814136,
      "byteOffset": 0,
      "name": "floatBufferViews",
      "target": 34963
    },
    {
      "buffer": 0,
      "byteLength": 4924248,
      "byteOffset": 4814136,
      "byteStride": 12,
      "name": "floatBufferViews",
      "target": 34962
    }
  ],
  "buffers": [
    {
      "byteLength": 9738384,
      "uri": "scene.bin"
    }
  ],
  "materials": [
    {
      "doubleSided": true,
      "emissiveFactor": [
        0,
        0,
        0
      ],
      "name": "material_0",
      "pbrMetallicRoughness": {
        "baseColorFactor": [
          0.659241228129265,
          0.63404913477502267,
          0.52045600379841794,
          1
        ],
        "metallicFactor": 0.10000000000000001,
        "roughnessFactor": 0.72999999999999998
      }
    }
  ],
  "meshes": [
    {
      "primitives": [
        {
          "attributes": {
            "NORMAL": 1,
            "POSITION": 0
          },
          "indices": 2,
          "material": 0,
          "mode": 4
        }
      ]
    },
    {
      "primitives": [
        {
          "attributes": {
            "NORMAL": 4,
            "POSITION": 3
          },
          "indices": 5,
          "material": 0,
          "mode": 4
        }
      ]
    },
    {
      "primitives": [
        {
          "attributes": {
            "NORMAL": 7,
            "POSITION": 6
          },
          "indices": 8,
          "material": 0,
          "mode": 4
        }
      ]
    },
    {
      "primitives": [
        {
          "attributes": {
            "NORMAL": 10,
            "POSITION": 9
          },
          "indices": 11,
          "material": 0,
          "mode": 4
        }
      ]
    },
    {
      "primitives": [
        {
          "attributes": {
            "NORMAL": 13,
            "POSITION": 12
          },
          "indices": 14,
          "material": 0,
          "mode": 4
        }
      ]
    },
    {
      "primitives": [
        {
          "attributes": {
            "NORMAL": 16,
            "POSITION": 15
          },
          "indices": 17,
          "material": 0,
          "mode": 4
        }
      ]
    },
    {
      "primitives": [
        {
          "attributes": {
            "NORMAL": 19,
            "POSITION": 18
          },
          "indices": 20,
          "material": 0,
          "mode": 4
        }
      ]
    },
    {
      "primitives": [
        {
          "attributes": {
            "NORMAL": 22,
            "POSITION": 21
          },
          "indices": 23,
          "material": 0,
          "mode": 4
        }
      ]
    },
    {
      "primitives": [
        {
          "attributes": {
            "NORMAL": 25,
            "POSITION": 24
          },
          "indices": 26,
          "material": 0,
          "mode": 4
        }
      ]
    },
    {
      "primitives": [
        {
          "attributes": {
            "NORMAL": 28,
            "POSITION": 27
          },
          "indices": 29,
          "material": 0,
          "mode": 4
        }
      ]
    },
    {
      "primitives": [
        {
          "attributes": {
            "NORMAL": 31,
            "POSITION": 30
          },
          "indices": 32,
          "material": 0,
          "mode": 4
        }
      ]
    },
    {
      "primitives": [
        {
          "attributes": {
            "NORMAL": 34,
            "POSITION": 33
          },
          "indices": 35,
          "material": 0,
          "mode": 4
        }
      ]
    },
    {
      "primitives": [
        {
          "attributes": {
            "NORMAL": 37,
            "POSITION": 36
          },
          "indices": 38,
          "material": 0,
          "mode": 4
        }
      ]
    },
    {
      "primitives": [
        {
          "attributes": {
            "NORMAL": 40,
            "POSITION": 39
          },
          "indices": 41,
          "material": 0,
          "mode": 4
        }
      ]
    },
    {
      "primitives": [
        {
          "attributes": {
            "NORMAL": 43,
            "POSITION": 42
          },
          "indices": 44,
          "material": 0,
          "mode": 4
        }
      ]
    },
    {
      "primitives": [
        {
          "attributes": {
            "NORMAL": 46,
            "POSITION": 45
          },
          "indices": 47,
          "material": 0,
          "mode": 4
        }
      ]
    },
    {
      "primitives": [
        {
          "attributes": {
            "NORMAL": 49,
            "POSITION": 48
          },
          "indices": 50,
          "material": 0,
          "mode": 4
        }
      ]
    },
    {
      "primitives": [
        {
          "attributes": {
            "NORMAL": 52,
            "POSITION": 51
          },
          "indices": 53,
          "material": 0,
          "mode": 4
        }
      ]
    },
    {
      "primitives": [
        {
          "attributes": {
            "NORMAL": 55,
            "POSITION": 54
          },
          "indices": 56,
          "material": 0,
          "mode": 4
        }
      ]
    }
  ],
  "nodes": [
    {
      "children": [
        1
      ],
      "name": "RootNode (gltf orientation matrix)",
      "rotation": [
        -0.70710678118654746,
        -0,
        -0,
        0.70710678118654757
      ]
    },
    {
      "children": [
        2
      ],
      "name": "RootNode (model correction matrix)"
    },
    {
      "children": [
        3
      ],
      "matrix": [
        1,
        0,
        0,
        0,
        0,
        1,
        0,
        0,
        0,
        0,
        1,
        0,
        -0.93840914964675903,
        -0.56338435411453247,
        -3.4121832847595215,
        1
      ],
      "name": "zbrush_concat.osgb.cleaner.gles"
    },
    {
      "children": [
        4,
        5,
        6,
        7,
        8,
        9,
        10,
        11,
        12,
        13,
        14,
        15,
        16,
        17,
        18,
        19,
        20,
        21,
        22
      ],
      "name": "/sketchfab-data/processing/0d67e35cc32341c0bb857095f04e7b21/preprocess/SubTool-0-3517926.OBJ"
    },
    {
      "mesh": 0,
      "name": ""
    },
    {
      "mesh": 1,
      "name": ""
    },
    {
      "mesh": 2,
      "name": ""
    },
    {
      "mesh": 3,
      "name": ""
    },
    {
      "mesh": 4,
      "name": ""
    },
    {
      "mesh": 5,
      "name": ""
    },
    {
      "mesh": 6,
      "name": ""
    },
    {
      "mesh": 7,
      "name": ""
    },
    {
      "mesh": 8,
      "name": ""
    },
    {
      "mesh": 9,
      "name": ""
    },
    {
      "mesh": 10,
      "name": ""
    },
    {
      "mesh": 11,
      "name": ""
    },
    {
      "mesh": 12,
      "name": ""
    },
    {
      "mesh": 13,
      "name": ""
    },
    {
      "mesh": 14,
      "name": ""
    },
    {
      "mesh": 15,
      "name": ""
    },
    {
      "mesh": 16,
      "name": ""
    },
    {
      "mesh": 17,
      "name": ""
    },
    {
      "mesh": 18,
      "name": ""
    }
  ],
  "scene": 0,
  "scenes": [
    {
      "name": "OSG_Scene",
      "nodes": [
        0
      ]
    }
  ]
}

